<svg width="24" height="24" viewBox="0 0 24 24" fill="none" xmlns="http://www.w3.org/2000/svg">
<path d="M16.0658 8.99469C16.3587 8.70179 16.3587 8.22692 16.0658 7.93403C15.773 7.64113 15.2981 7.64113 15.0052 7.93403L12 10.9392L8.99479 7.93403C8.70189 7.64113 8.22702 7.64113 7.93413 7.93403C7.64123 8.22692 7.64123 8.70179 7.93413 8.99469L10.9393 11.9999L7.93412 15.0051C7.64122 15.298 7.64122 15.7729 7.93412 16.0658C8.22701 16.3586 8.70188 16.3586 8.99478 16.0658L12 13.0605L15.0052 16.0658C15.2981 16.3586 15.773 16.3586 16.0659 16.0658C16.3587 15.7729 16.3587 15.298 16.0659 15.0051L13.0606 11.9999L16.0658 8.99469Z" fill="#595959"/>
</svg>
